<svg width="1500" height="1500" viewBox="0 0 1500 1500" fill="none" xmlns="http://www.w3.org/2000/svg">
<path d="M445.31 1259.07C455.165 1194.02 484.348 1105.64 566.122 1040.43L612.167 1122.5L650.359 1022.03L707.647 1080.92L733.211 935.422L580.598 742.112L536.4 656.582L531.472 782.607L373.7 697.923L449.391 841.269L277.682 905.398L431.989 945.353C431.989 945.353 336.278 1038.27 312.793 1183.7C292.235 1310.72 374.239 1431.28 499.902 1459.23C624.795 1486.94 804.666 1469.54 990.543 1258.37C990.543 1258.37 730.824 1477.63 530.394 1404.72C471.027 1383.09 435.916 1321.5 445.31 1259.07Z" fill="url(#paint0_linear_200_2)"/>
<path d="M707.953 929.109L690.782 1026.5L668.915 1004.02L640.502 974.761L626.026 1012.87L607.623 1061.37L588.758 1027.73L573.82 1001.09L549.95 1020.11C460.862 1091.09 429.908 1187.09 419.667 1255.14C408.348 1330.28 451.16 1403.41 521.538 1429.05C540.556 1435.98 560.73 1440.75 581.751 1443.22C556.418 1442.6 530.778 1439.37 505.522 1433.82C393.487 1408.96 320.107 1300.95 338.433 1187.86C360.224 1053.29 449.235 964.83 450.082 963.983L483.192 931.804L438.532 920.179L363.997 900.933L458.629 865.597L486.272 855.281L472.489 829.183L436.53 761.051L519.305 805.471L555.879 825.102L557.496 783.607L558.574 755.97L558.651 756.201L560.191 758.125L707.953 929.109Z" fill="url(#paint1_linear_200_2)"/>
<path d="M1044.29 695.69L997.781 765.362L884.976 932.65L868.421 957.286C861.722 967.14 853.022 975.531 842.396 981.69C797.274 1007.71 734.981 984.154 703.18 929.109C682.237 892.926 679.773 852.124 693.325 821.022L698.792 807.627L708.955 782.683L779.795 609.005L786.34 592.915L817.371 516.854L820.682 508.77L1044.29 695.69Z" fill="url(#paint2_linear_200_2)"/>
<path d="M885.053 932.651L868.498 957.286C861.799 967.14 853.098 975.531 842.472 981.69C797.35 1007.71 735.057 984.154 703.257 929.109C682.313 892.926 679.849 852.124 693.401 821.022L709.032 782.683C723.585 840.73 770.554 976.301 885.053 932.651Z" fill="url(#paint3_linear_200_2)"/>
<path d="M858.104 624.325L762.24 802.392C759.622 807.242 753.616 809.012 748.765 806.395C744.068 803.854 742.22 798.004 744.607 793.23L835.158 612.392C838.315 606.003 846.092 603.462 852.483 606.619C858.874 609.775 861.415 617.55 858.258 623.94C858.258 624.094 858.181 624.248 858.104 624.325Z" fill="url(#paint4_linear_200_2)"/>
<path d="M1044.29 695.69L997.781 765.362C924.323 782.222 865.341 744.499 831.616 710.856C798.814 678.138 785.339 637.182 779.795 608.928L786.34 592.838L820.682 508.693L1044.29 695.69Z" fill="url(#paint5_linear_200_2)"/>
<path opacity="0.3" d="M840.78 532.559L698.793 807.55L709.034 782.607L779.873 608.928L786.418 592.838L817.449 516.777L840.78 532.559Z" fill="white"/>
<path d="M1050.37 523.166C1092.26 595.686 1078.09 682.295 1018.65 716.553C959.279 750.812 877.12 719.787 835.233 647.267C793.345 574.747 807.513 488.138 866.956 453.88C926.4 419.621 1008.48 450.646 1050.37 523.166Z" fill="url(#paint6_linear_200_2)"/>
<path d="M1005.63 548.956C1030.12 591.375 1021.8 641.954 987.078 661.971C952.351 681.987 904.38 663.895 879.894 621.476C855.409 579.058 863.725 528.478 898.451 508.462C933.178 488.446 981.226 506.538 1005.63 548.956Z" fill="url(#paint7_linear_200_2)"/>
<path d="M976.991 565.508C990.312 588.527 985.769 616.087 966.904 626.942C948.039 637.797 921.936 627.943 908.615 604.925C895.294 581.906 899.837 554.345 918.702 543.491C937.567 532.559 963.67 542.49 976.991 565.508Z" fill="url(#paint8_linear_200_2)"/>
<path d="M866.881 695.69L820.373 765.362L707.646 932.65L691.091 957.286C684.392 967.14 675.691 975.531 665.066 981.69C619.944 1007.71 557.651 984.154 525.85 929.109C504.907 892.926 502.443 852.124 515.994 821.022L521.461 807.627L531.625 782.683L602.465 609.005L609.01 592.915L640.041 516.854L643.352 508.77L866.881 695.69Z" fill="url(#paint9_linear_200_2)"/>
<path d="M707.646 932.651L691.091 957.286C684.392 967.14 675.691 975.531 665.066 981.69C619.944 1007.71 557.651 984.154 525.85 929.109C504.907 892.926 502.443 852.124 515.994 821.022L531.625 782.683C546.101 840.73 593.071 976.301 707.646 932.651Z" fill="url(#paint10_linear_200_2)"/>
<path d="M680.696 624.325L584.832 802.392C582.214 807.242 576.208 809.012 571.357 806.395C566.66 803.854 564.812 798.004 567.199 793.23L657.75 612.392C660.907 606.003 668.684 603.462 675.075 606.619C681.466 609.775 684.007 617.55 680.85 623.94C680.773 624.094 680.696 624.248 680.696 624.325Z" fill="url(#paint11_linear_200_2)"/>
<path d="M866.88 695.69L820.372 765.362C746.915 782.222 687.933 744.499 654.207 710.856C621.406 678.138 607.931 637.182 602.387 608.928L608.932 592.838L643.273 508.693L866.88 695.69Z" fill="url(#paint12_linear_200_2)"/>
<path opacity="0.3" d="M663.372 532.559L521.385 807.55L531.549 782.607L602.388 608.928L608.933 592.838L639.964 516.777L663.372 532.559Z" fill="white"/>
<path d="M872.887 523.166C914.774 595.686 900.607 682.295 841.163 716.553C781.796 750.812 699.638 719.787 657.75 647.267C615.862 574.747 630.03 488.138 689.474 453.88C748.918 419.621 830.999 450.646 872.887 523.166Z" fill="url(#paint13_linear_200_2)"/>
<path d="M828.228 548.956C852.714 591.375 844.398 641.954 809.672 661.971C774.945 681.987 726.974 663.895 702.488 621.476C678.002 579.058 686.318 528.478 721.045 508.462C755.772 488.446 803.743 506.538 828.228 548.956Z" fill="url(#paint14_linear_200_2)"/>
<path d="M799.506 565.508C812.827 588.527 808.284 616.087 789.419 626.942C770.555 637.797 744.452 627.943 731.131 604.925C717.81 581.906 722.353 554.345 741.218 543.491C760.16 532.559 786.262 542.49 799.506 565.508Z" fill="url(#paint15_linear_200_2)"/>
<path d="M1036.51 1052.13C1011.95 1096.86 967.52 1126.88 920.089 1146.82C874.736 1165.99 826.688 1175.77 790.499 1180.31C775.869 1182.16 763.241 1183.08 753.539 1183.47C743.837 1183.85 733.288 1185.08 722.431 1187.09C706.8 1189.86 690.476 1194.01 675.23 1198.4C636.885 1209.57 604.776 1222.88 604.776 1222.88C604.776 1222.88 556.343 1299.64 532.165 1297.02C517.689 1295.4 514.686 1285.17 514.609 1277.24C514.609 1271.92 515.841 1267.61 515.841 1267.61L532.858 1178.77L655.441 1100.32L764.935 1030.27L835.081 1035.96L893.986 1040.74L1036.51 1052.13Z" fill="url(#paint16_linear_200_2)"/>
<path d="M1036.51 1052.13C1011.95 1096.86 967.52 1126.88 920.088 1146.82C917.316 1130.35 906.459 1111.87 891.983 1093.7C875.505 1072.99 854.407 1052.67 835.08 1035.81C807.207 1011.41 783.26 994.316 783.26 994.316L807.592 987.156L894.062 1040.58L1036.51 1052.13Z" fill="url(#paint17_linear_200_2)"/>
<path d="M790.574 1180.31C775.944 1182.16 763.317 1183.08 753.615 1183.47C743.913 1183.85 733.364 1185.08 722.507 1187.09C706.876 1189.86 690.552 1194.01 675.306 1198.4C672.996 1179.23 668.992 1140.36 668.992 1140.36L715.808 1121.8C715.731 1121.8 711.188 1165.61 790.574 1180.31Z" fill="url(#paint18_linear_200_2)"/>
<path d="M722.508 1187.09C705.414 1190.17 687.55 1194.78 671.149 1199.63C634.652 1210.49 604.93 1222.88 604.93 1222.88C604.93 1222.88 556.497 1299.64 532.319 1297.02C508.142 1294.4 515.995 1267.54 515.995 1267.54L533.012 1178.69L655.596 1100.25L707.493 1093.78L709.187 1093.55L717.349 1092.55L714.115 1103.1L700.024 1148.82C699.947 1148.82 706.415 1171.3 722.508 1187.09Z" fill="url(#paint19_linear_200_2)"/>
<path d="M722.508 1187.09C712.806 1188.86 702.95 1191.09 693.171 1193.55C685.702 1195.48 678.31 1197.56 671.149 1199.63C654.286 1181.47 650.359 1156.83 650.359 1156.83L707.493 1093.78L708.648 1092.55L709.187 1093.55L714.115 1103.1L708.34 1121.8L700.024 1148.82C699.947 1148.82 706.415 1171.3 722.508 1187.09Z" fill="url(#paint20_linear_200_2)"/>
<path d="M722.506 1187.09C712.804 1188.86 702.948 1191.09 693.169 1193.55C675.151 1168.76 671.609 1146.05 671.609 1146.05C671.609 1146.05 693.862 1131.35 708.338 1121.73L700.022 1148.75C699.945 1148.82 706.413 1171.3 722.506 1187.09Z" fill="url(#paint21_linear_200_2)"/>
<path d="M927.096 1060.98C919.704 1073.3 907.461 1084.16 891.984 1093.7C842.089 1124.5 758.929 1141.51 699.948 1148.75C698.562 1148.9 697.176 1149.13 695.79 1149.36C620.484 1159.99 561.657 1207.1 561.657 1207.1C552.494 1230.81 533.321 1261.61 514.687 1277.16C506.448 1284.01 498.286 1287.94 491.202 1286.94C468.025 1283.78 478.035 1250.14 484.888 1224.42C491.741 1198.63 484.888 1187.63 495.437 1173.92C505.986 1160.22 526.16 1168.15 526.16 1168.15C575.901 1088.93 646.356 1070.15 646.356 1070.15L717.889 994.239C715.271 963.83 739.987 945.276 739.987 945.276L807.67 987.079L894.14 1040.51L927.096 1060.98Z" fill="url(#paint22_linear_200_2)"/>
<path d="M614.093 1131.81C612.245 1131.81 610.397 1130.73 609.627 1128.89C608.549 1126.42 609.704 1123.57 612.168 1122.5C612.861 1122.19 679.62 1093.01 734.674 1028.57C733.211 1011.56 738.447 980.612 768.631 972.606C771.249 971.913 773.867 973.453 774.56 976.07C775.253 978.688 773.713 981.305 771.095 981.998C739.91 990.312 744.299 1027.96 744.53 1029.57C744.684 1030.88 744.299 1032.27 743.452 1033.35C686.55 1100.71 618.867 1130.27 616.018 1131.5C615.402 1131.73 614.709 1131.81 614.093 1131.81Z" fill="url(#paint23_linear_200_2)"/>
<path d="M927.095 1060.98C919.703 1073.3 907.46 1084.16 891.983 1093.7C875.505 1072.99 854.407 1052.67 835.08 1035.81C807.207 1011.41 783.26 994.316 783.26 994.316L807.592 987.156L894.062 1040.58L927.095 1060.98Z" fill="url(#paint24_linear_200_2)"/>
<path d="M695.865 1149.36C677.385 1151.98 659.906 1156.75 644.121 1162.53C595.304 1180.31 561.809 1207.1 561.809 1207.1C548.642 1241.28 514.531 1290.17 491.354 1287.01C468.177 1283.86 478.187 1250.21 485.04 1224.5C491.893 1198.71 485.04 1187.7 495.589 1174C506.138 1160.3 526.312 1168.23 526.312 1168.23C551.183 1128.65 581.213 1104.17 605.006 1089.55C628.875 1074.92 646.508 1070.22 646.508 1070.22C646.508 1070.22 650.127 1126.35 695.865 1149.36Z" fill="url(#paint25_linear_200_2)"/>
<path d="M695.867 1149.36C683.932 1151.06 672.459 1153.67 661.525 1156.83C655.519 1158.52 649.744 1160.45 644.123 1162.53C609.859 1135.2 604.854 1105.17 604.931 1089.55C612.246 1085.08 618.945 1081.54 624.796 1078.77C637.963 1072.53 646.356 1070.3 646.356 1070.3C646.356 1070.3 650.129 1126.35 695.867 1149.36Z" fill="url(#paint26_linear_200_2)"/>
<path d="M695.867 1149.36C683.932 1151.06 672.46 1153.67 661.526 1156.83C631.342 1123.03 625.336 1094.55 624.797 1078.77C637.964 1072.53 646.357 1070.3 646.357 1070.3C646.357 1070.3 650.13 1126.35 695.867 1149.36Z" fill="url(#paint27_linear_200_2)"/>
<path d="M1149.47 1070.3C1146.23 1070.92 1143.15 1071.45 1140.31 1071.69C1124.83 1073.3 1114.2 1069.84 1108.12 1057.91C1101.96 1045.74 1109.35 1036.27 1111.58 1033.81C1111.97 1033.42 1112.2 1033.19 1112.2 1033.19L1095.88 1007.48L1181.27 951.82L1183.12 950.588C1183.12 950.588 1191.9 972.606 1198.67 995.701C1202.29 1007.86 1205.37 1020.41 1206.29 1030.04C1208.91 1057.83 1170.03 1066.22 1149.47 1070.3Z" fill="url(#paint28_linear_200_2)"/>
<path d="M1140.31 1071.69C1124.83 1073.3 1114.2 1069.84 1108.12 1057.91C1101.96 1045.74 1109.35 1036.27 1111.58 1033.81C1111.97 1033.42 1112.2 1033.19 1112.2 1033.19L1095.88 1007.48L1181.27 951.82C1140.77 992.622 1138.23 1043.12 1140.31 1071.69Z" fill="url(#paint29_linear_200_2)"/>
<path d="M1149.47 1070.3C1128.99 1074.3 1115.36 1072.07 1108.12 1057.91C1101.96 1045.74 1109.35 1036.27 1111.59 1033.81C1111.97 1033.42 1112.2 1033.19 1112.2 1033.19C1112.2 1033.19 1139.77 1005.63 1175.11 997.626C1188.2 994.7 1201.21 1002.86 1204.06 1015.95C1205.14 1021.03 1205.99 1025.8 1206.37 1029.96C1208.91 1057.83 1170.03 1066.22 1149.47 1070.3Z" fill="url(#paint30_linear_200_2)"/>
<path d="M1305.47 876.682L1284.68 890.232L1223.77 930.033L1077.01 1025.96C1077.01 1025.96 1064 1053.98 1041.75 1060.29C1032.28 1062.99 996.702 1072.15 949.886 1069.91C923.552 1068.68 893.677 1063.76 862.877 1052.13H862.8C844.012 1044.97 824.839 1035.35 805.897 1022.42C782.797 1006.63 760.006 985.847 738.831 958.902C733.595 952.282 731.208 943.659 733.287 935.499C735.366 927.261 741.757 918.947 758.774 918.408L759.467 914.097L779.486 784.993L794.886 686.067C794.886 686.067 821.066 679.138 858.257 671.517C876.891 667.745 898.22 663.741 920.473 660.354C949.039 656.043 978.915 652.733 1006.02 652.04C1075.7 650.423 1243.64 689.993 1317.1 708.239C1339.04 713.628 1352.52 717.246 1352.52 717.246C1352.52 717.246 1385.4 822.023 1305.47 876.682Z" fill="url(#paint31_linear_200_2)"/>
<path d="M759.391 914.097L779.41 784.993L873.427 774.908C873.427 774.908 877.277 887.845 759.391 914.097Z" fill="url(#paint32_linear_200_2)"/>
<path d="M1305.47 876.682L1284.68 890.232C1348.97 810.86 1318.1 740.111 1318.1 740.111L1317.02 708.239C1338.96 713.628 1352.44 717.246 1352.44 717.246C1352.44 717.246 1385.4 822.023 1305.47 876.682Z" fill="url(#paint33_linear_200_2)"/>
<path d="M1223.77 930.033L1077.01 1025.96C1077.01 1025.96 1064 1053.98 1041.75 1060.29C1032.27 1062.99 996.7 1072.15 949.885 1069.92C998.471 1042.43 1176.34 936.5 1237.79 824.409L1305.47 774.908C1305.47 774.908 1311.4 835.649 1223.77 930.033Z" fill="url(#paint34_linear_200_2)"/>
<path d="M967.595 803.392C965.978 890.617 896.756 1002.55 862.876 1052.13H862.799L805.896 1022.42C974.833 815.171 899.99 708.701 858.179 671.517C876.813 667.745 898.142 663.741 920.395 660.354C942.032 686.837 968.827 733.952 967.595 803.392Z" fill="url(#paint35_linear_200_2)"/>
<path d="M978.992 710.856C978.992 710.856 1012.79 850.431 1124.29 860.593C1235.79 870.755 1285.14 803.393 1285.14 803.393L978.992 710.856Z" fill="url(#paint36_linear_200_2)"/>
<path d="M1229.78 363.885L1151.7 405.457C1151.7 405.457 1132.22 403.763 1102.58 397.681C1060.07 388.982 996.856 371.429 940.493 337.402C914.698 321.851 890.366 302.835 870.115 279.586C816.139 217.69 809.363 145.863 813.598 95.2066C813.983 90.6644 814.445 86.3533 814.984 82.1961C818.988 50.6322 826.611 30.0771 826.611 30.0771L909.077 98.363L1197.59 337.325H1197.67L1229.78 363.885Z" fill="url(#paint37_linear_200_2)"/>
<path d="M1128.22 354.8L1102.58 397.604C1060.07 388.905 996.856 371.352 940.493 337.325C914.698 321.774 890.366 302.758 870.115 279.509C816.139 217.613 809.363 145.786 813.598 95.1294C861.645 161.875 994.007 329.857 1128.22 354.8Z" fill="url(#paint38_linear_200_2)"/>
<path d="M940.493 337.325C914.698 321.774 890.366 302.758 870.115 279.509C774.79 170.19 826.688 30 826.688 30L909.154 98.2858C897.219 127.155 869.191 219.768 940.493 337.325Z" fill="url(#paint39_linear_200_2)"/>
<path opacity="0.6" d="M1197.75 337.325L815.061 82.1189C819.065 50.555 826.687 30 826.687 30L909.154 98.2858L1197.75 337.325Z" fill="#FFCA83"/>
<path d="M1358.44 517.008C1356.83 509.463 1355.06 501.919 1352.82 494.528C1333.5 428.013 1288.76 369.273 1193.59 356.571C972.754 327.085 940.183 521.935 940.183 521.935C940.183 521.935 902.992 768.672 1102.27 817.173C1102.27 817.173 1323.02 881.147 1352.44 717.169C1352.44 717.169 1362.99 675.058 1365.45 619.475C1365.76 612.854 1365.91 606.08 1365.99 599.074C1366.14 572.899 1364.14 544.722 1358.44 517.008Z" fill="url(#paint40_linear_200_2)"/>
<path d="M1305.47 585.063C1305.08 673.288 1281.75 761.051 1261.5 820.637C1230.86 829.952 1197.44 830.722 1169.26 828.567C1178.88 805.24 1187.43 782.761 1192.66 764.515C1213.76 691.225 1223.46 630.715 1225.39 580.675C1226.7 546.108 1224.39 516.623 1219.46 491.372C1202.67 405.148 1156.55 369.119 1128.29 354.8C1148 353.26 1169.72 353.722 1193.74 356.571C1206.76 358.111 1218.69 360.574 1229.86 363.807C1266.89 402.685 1287.76 450.108 1297.85 500.379C1303.31 528.017 1305.62 556.578 1305.47 585.063Z" fill="url(#paint41_linear_200_2)"/>
<path d="M1365.99 599.074C1336.43 588.758 1293.31 580.136 1232.17 580.597C1196.59 580.828 1154.86 584.139 1106.2 591.991C1105.89 591.991 1105.66 592.068 1105.35 592.145C1093.72 593.762 1081.94 590.375 1073.01 582.753C1063.85 574.978 1058.61 563.584 1058.61 551.574C1058.61 534.56 1068.78 519.625 1084.56 513.466C1087.72 512.235 1090.95 511.003 1094.11 509.925C1136.84 494.759 1180.12 490.371 1219.08 491.372C1285.53 492.988 1339.66 510.31 1358.45 517.008C1364.15 544.722 1366.15 572.899 1365.99 599.074Z" fill="url(#paint42_linear_200_2)"/>
<path d="M1365.99 599.074C1365.99 606.08 1365.76 612.854 1365.45 619.475C1286.07 589.143 1171.49 601.076 1109.27 611.084C1091.72 613.932 1073.93 608.928 1060.38 597.457C1046.91 585.986 1039.21 569.281 1039.21 551.574C1039.21 526.554 1054.22 504.459 1077.47 495.375C1191.36 450.724 1307.24 479.593 1352.82 494.528C1354.98 501.919 1356.83 509.463 1358.44 517.008C1327.88 505.999 1203.14 466.89 1084.56 513.39C1068.77 519.548 1058.61 534.56 1058.61 551.497C1058.61 563.507 1063.84 574.824 1073.01 582.676C1082.17 590.452 1094.26 593.839 1106.19 591.914C1238.56 570.666 1319.25 582.83 1365.99 599.074Z" fill="url(#paint43_linear_200_2)"/>
<path d="M1365.99 599.074C1365.99 606.08 1365.76 612.854 1365.45 619.475C1286.07 589.143 1171.49 601.076 1109.27 611.084C1091.72 613.932 1073.93 608.928 1060.38 597.457C1046.91 585.986 1039.21 569.281 1039.21 551.574C1039.21 526.554 1054.22 504.459 1077.47 495.375C1191.36 450.724 1307.24 479.593 1352.82 494.528C1354.98 501.919 1356.83 509.463 1358.44 517.008C1327.88 505.999 1203.14 466.89 1084.56 513.39C1068.77 519.548 1058.61 534.56 1058.61 551.497C1058.61 563.507 1063.84 574.824 1073.01 582.676C1082.17 590.452 1094.26 593.839 1106.19 591.914C1238.56 570.666 1319.25 582.83 1365.99 599.074Z" fill="url(#paint44_linear_200_2)"/>
<path d="M1132.22 499.147C1162.17 492.681 1191.66 490.679 1219.08 491.372C1223.23 518.394 1228.39 554.038 1232.17 580.598C1206.6 580.752 1177.8 582.522 1145.62 586.449L1132.22 499.147ZM1117.13 502.766C1109.43 504.844 1101.81 507.154 1094.11 509.848L1105.35 592.068C1105.66 592.068 1105.89 591.991 1106.19 591.914C1114.36 590.606 1122.29 589.451 1130.14 588.373L1117.13 502.766Z" fill="white"/>
<path d="M1072.86 480.902C1068.01 481.133 1063.39 478.284 1061.61 473.511C1059.38 467.352 1062.54 460.347 1068.78 457.806C1070.16 457.19 1103.58 443.564 1147.31 437.02C1153.86 436.019 1159.79 440.562 1160.4 447.105C1161.1 453.649 1156.32 459.808 1149.7 460.809C1109.12 466.89 1077.25 479.901 1076.94 480.055C1075.55 480.517 1074.17 480.825 1072.86 480.902Z" fill="url(#paint45_linear_200_2)"/>
<path d="M1135.38 824.409C1115.28 821.022 1102.27 817.25 1102.27 817.25C1101.35 817.019 1100.5 816.788 1099.57 816.557C1023.5 797.157 982.458 748.579 960.744 696.306C955.431 683.527 951.273 670.593 948.039 657.814C989.465 652.502 1137.77 646.035 1135.38 824.409Z" fill="url(#paint46_linear_200_2)"/>
<path d="M1099.65 816.557C1023.57 797.157 982.534 748.579 960.82 696.306C1012.26 699.617 1083.17 721.865 1099.65 816.557Z" fill="url(#paint47_linear_200_2)"/>
<path d="M1041.75 440.947C1041.75 487.908 1008.25 554.577 937.568 561.428C937.722 550.111 938.338 540.719 938.954 533.945C939.647 526.323 940.263 522.012 940.263 522.012C940.263 522.012 947.347 465.659 990.082 418.236C993.932 413.925 998.09 409.768 1002.56 405.687C1020.5 404.148 1041.75 409.075 1041.75 440.947Z" fill="url(#paint48_linear_200_2)"/>
<path d="M1021.5 444.565C1021.5 456.575 1018.26 470.278 1011.56 483.366C999.242 507.539 975.295 529.326 938.952 533.868C812.827 562.429 712.342 561.044 632.494 542.259C497.052 510.387 420.822 428.167 378.857 356.494C371.85 344.561 365.844 332.937 360.608 321.928C336.739 271.272 330.348 232.625 330.348 232.625C372.312 267.499 425.75 295.907 483.962 319.079C703.025 406.072 990.079 418.313 990.079 418.313C1004.71 417.389 1021.42 421.47 1021.5 444.565Z" fill="url(#paint49_linear_200_2)"/>
<path d="M1011.49 483.442C999.165 507.616 975.219 529.402 938.875 533.944C812.75 562.506 712.265 561.12 632.417 542.336C497.052 510.387 420.822 428.167 378.857 356.494C500.132 434.711 745.837 557.194 1011.49 483.442Z" fill="url(#paint50_linear_200_2)"/>
<path d="M632.494 542.259C371.465 480.748 330.348 232.548 330.348 232.548C372.312 267.422 425.75 295.83 483.962 319.002C491.123 358.188 520.151 463.195 632.494 542.259Z" fill="url(#paint51_linear_200_2)"/>
<path opacity="0.6" d="M990.079 418.236C778.254 452.879 543.482 405.379 360.608 321.851C336.739 271.194 330.348 232.548 330.348 232.548C372.312 267.422 425.75 295.83 483.962 319.002C703.025 406.072 990.079 418.236 990.079 418.236Z" fill="#FFCA83"/>
<path d="M703.719 731.026C703.719 731.026 767.166 653.733 836.928 696.229C906.689 738.725 889.519 836.111 797.889 860.516L703.719 731.026Z" fill="url(#paint52_linear_200_2)"/>
<path d="M588.373 835.341L703.719 731.027C716.654 719.325 733.055 712.319 750.457 711.01C777.946 709.009 804.511 721.557 820.373 744.191L822.76 747.578C841.009 773.676 841.625 808.243 824.3 835.034L823.992 835.572C815.83 848.198 804.126 858.206 790.343 864.442L663.294 921.565H611.627L576.9 857.59L588.373 835.341Z" fill="url(#paint53_linear_200_2)"/>
<path d="M744.992 841.269C775.398 841.269 800.047 816.625 800.047 786.225C800.047 755.825 775.398 731.181 744.992 731.181C714.586 731.181 689.938 755.825 689.938 786.225C689.938 816.625 714.586 841.269 744.992 841.269Z" fill="url(#paint54_linear_200_2)"/>
<path d="M744.99 824.563C766.168 824.563 783.336 807.399 783.336 786.225C783.336 765.051 766.168 747.886 744.99 747.886C723.812 747.886 706.645 765.051 706.645 786.225C706.645 807.399 723.812 824.563 744.99 824.563Z" fill="url(#paint55_linear_200_2)"/>
<path d="M738.446 790.536L728.744 782.914L742.912 761.205C745.684 757.048 751.382 756.124 755.232 759.203C759.159 762.283 759.544 768.056 756.156 771.675L738.446 790.536Z" fill="url(#paint56_linear_200_2)"/>
<path d="M740.832 793.153L747.762 803.315L770.4 790.767C774.712 788.303 776.098 782.684 773.326 778.603C770.554 774.446 764.779 773.676 760.929 776.756L740.832 793.153Z" fill="url(#paint57_linear_200_2)"/>
<path d="M712.496 778.372C710.032 780.682 708.108 783.299 706.645 786.071C706.645 795.694 710.186 805.317 717.347 812.785C724.508 820.252 734.056 824.178 743.681 824.486C746.299 823.255 748.686 821.638 750.919 819.636C762.315 809.012 762.931 791.229 752.382 779.835C741.756 768.441 723.892 767.748 712.496 778.372Z" fill="url(#paint58_linear_200_2)"/>
<path d="M727.821 788.996C726.281 790.382 724.202 790.613 723.124 789.458C722.046 788.303 722.431 786.225 723.971 784.839C725.511 783.453 727.59 783.222 728.668 784.377C729.746 785.532 729.361 787.61 727.821 788.996Z" fill="url(#paint59_linear_200_2)"/>
<path d="M745.069 807.55C743.529 808.935 741.45 809.166 740.372 808.011C739.294 806.857 739.679 804.778 741.219 803.392C742.759 802.007 744.838 801.776 745.916 802.931C746.917 804.085 746.609 806.087 745.069 807.55Z" fill="url(#paint60_linear_200_2)"/>
<path d="M663.371 921.488C663.371 921.488 649.511 936.654 623.1 951.666C608.779 959.749 590.838 967.833 569.432 973.376C557.959 976.378 549.027 980.073 542.097 984.231C534.859 988.542 529.7 993.315 526.158 998.088C513.684 1014.95 520.306 1032.19 520.306 1032.19C520.306 1032.19 551.491 1056.37 540.249 1082.31C536.861 1090.09 531.625 1096.55 525.927 1101.86C521.153 1106.33 516.071 1109.95 511.528 1112.72C503.058 1117.95 492.817 1119.72 482.961 1117.8L476.878 1116.57C468.408 1114.95 460.709 1110.64 454.934 1104.33L446.464 1095.17C428.138 1075.23 422.286 1046.74 431.68 1021.34C448.697 975.3 484.116 903.011 549.104 857.436C561.116 848.968 574.206 841.5 588.297 835.187C588.297 835.187 594.303 855.434 610.088 877.375C621.868 893.85 639.116 911.095 663.371 921.488Z" fill="url(#paint61_linear_200_2)"/>
<path d="M663.37 921.488C663.37 921.488 649.51 936.654 623.099 951.666C608.777 959.749 590.836 967.833 569.431 973.376C557.958 976.378 549.026 980.073 542.096 984.23C581.442 947.278 600.769 907.553 610.163 877.529C621.867 893.85 639.115 911.095 663.37 921.488Z" fill="url(#paint62_linear_200_2)"/>
<path d="M526.004 1101.94C521.23 1106.41 516.148 1110.02 511.605 1112.8C512.144 1111.79 522.154 1091.78 517.765 1065.14C517.688 1065.22 527.698 1080.77 526.004 1101.94Z" fill="url(#paint63_linear_200_2)"/>
<path d="M663.373 921.488C663.373 921.488 657.29 928.108 645.509 937.039C639.503 941.581 632.034 946.662 623.102 951.743C570.28 929.186 553.802 878.299 549.105 857.59C554.572 853.741 560.27 850.122 566.122 846.658C573.206 842.501 580.598 838.729 588.298 835.264C588.375 835.341 606.547 897.006 663.373 921.488Z" fill="url(#paint64_linear_200_2)"/>
<path d="M663.371 921.488C663.371 921.488 657.288 928.108 645.507 937.039C590.76 913.25 572.203 869.6 566.197 846.658C573.281 842.501 580.673 838.729 588.373 835.264C588.373 835.341 606.545 897.006 663.371 921.488Z" fill="url(#paint65_linear_200_2)"/>
<path d="M1077.01 1025.96C1077.01 1025.96 1064 1053.98 1041.75 1060.29C1019.8 1066.45 856.333 1108.02 738.755 958.825C733.519 952.205 731.132 943.582 733.211 935.422C735.29 927.185 741.68 918.87 758.697 918.331C758.697 918.408 819.45 1087.62 1077.01 1025.96Z" fill="url(#paint66_linear_200_2)"/>
<path d="M1036.51 896.621C1036.51 896.621 1037.9 873.449 1048.44 867.598C1058.99 861.747 1069 874.296 1064.77 882.995C1064.77 882.995 1083.86 854.665 1100.57 873.834C1115.59 891.156 1089.02 908.785 1089.02 908.785C1089.02 908.785 1104.81 907.168 1107.73 918.1C1110.74 929.032 1088.25 944.121 1072.55 938.039L1036.51 896.621Z" fill="url(#paint67_linear_200_2)"/>
<path d="M1047.29 902.472C1046.98 902.241 1046.75 901.78 1046.9 901.395L1052.06 882.302C1052.22 881.84 1052.68 881.609 1053.14 881.763C1053.6 881.917 1053.91 882.456 1053.76 882.918L1048.6 902.01C1048.44 902.472 1047.98 902.703 1047.52 902.549C1047.44 902.549 1047.37 902.472 1047.29 902.472Z" fill="white"/>
<path d="M1059.84 910.402C1059.76 910.325 1059.76 910.325 1059.69 910.248C1059.3 909.863 1059.3 909.324 1059.69 908.939L1086.1 883.842C1086.4 883.534 1087.02 883.534 1087.33 883.919C1087.71 884.304 1087.71 884.843 1087.33 885.228L1060.92 910.325C1060.61 910.633 1060.15 910.633 1059.84 910.402Z" fill="white"/>
<path d="M1069.39 927.724C1069.24 927.57 1069.08 927.416 1069 927.262C1068.85 926.8 1069.08 926.261 1069.54 926.184L1089.02 920.872C1089.49 920.718 1090.03 921.026 1090.18 921.488C1090.33 921.95 1090.1 922.489 1089.64 922.566L1070.16 927.878C1069.85 927.955 1069.54 927.878 1069.39 927.724Z" fill="white"/>
<path d="M1045.75 974.146C1043.82 975.223 1041.98 976.301 1040.05 977.302C1016.95 989.389 990.695 994.855 979.838 982.306C973.216 974.684 973.986 962.444 978.991 949.202C979.838 946.97 980.762 944.814 981.763 942.659C987.769 929.879 997.163 916.869 1007.4 906.784C1008.94 905.244 1010.48 903.781 1012.1 902.395C1013.41 901.241 1014.72 900.163 1016.03 899.085C1041.98 878.607 1066.62 906.938 1066.62 906.938C1066.62 906.938 1091.26 935.268 1067.31 958.056C1061.38 963.83 1053.83 969.373 1045.75 974.146Z" fill="url(#paint68_linear_200_2)"/>
<path d="M1035.43 933.728L1034.97 934.19C1033.82 935.191 1031.81 934.96 1030.66 933.651L1007.4 906.938C1008.94 905.398 1010.48 903.935 1012.1 902.549L1035.51 929.494C1036.66 930.726 1036.66 932.651 1035.43 933.728Z" fill="url(#paint69_linear_200_2)"/>
<path d="M1045.75 974.145C1043.82 975.223 1041.98 976.301 1040.05 977.302L1021.42 955.9C1020.26 954.514 1020.26 952.59 1021.49 951.589L1021.96 951.204C1023.19 950.126 1025.11 950.434 1026.27 951.743L1045.75 974.145Z" fill="url(#paint70_linear_200_2)"/>
<path d="M1001.25 969.526L1000.78 969.911C999.552 970.989 997.627 970.681 996.472 969.372L978.916 949.202C979.763 946.97 980.687 944.814 981.688 942.659L1001.25 965.138C1002.48 966.601 1002.48 968.526 1001.25 969.526Z" fill="url(#paint71_linear_200_2)"/>
<path d="M427.906 612.7L455.01 695.844L477.032 668.13L499.131 735.645L489.737 616.703L470.718 642.34L460.323 572.514L427.906 612.7Z" fill="url(#paint72_linear_200_2)"/>
<path d="M227.553 1018.03L313.869 1003.94L289.846 977.918L359.992 966.447L240.951 957.517L263.435 980.227L192.826 979.843L227.553 1018.03Z" fill="url(#paint73_linear_200_2)"/>
<path d="M143.933 746.962L337.51 832.339L330.426 797.542L396.337 824.101L299.241 754.738L306.633 785.84L134 696.306L143.933 746.962Z" fill="url(#paint74_linear_200_2)"/>
<defs>
<linearGradient id="paint0_linear_200_2" x1="620.576" y1="371.738" x2="644.923" y2="1642.88" gradientUnits="userSpaceOnUse">
<stop stop-color="#1481B4"/>
<stop offset="0.5" stop-color="#1B9CC9" stop-opacity="0.5"/>
<stop offset="1" stop-color="#36C3C9" stop-opacity="0"/>
</linearGradient>
<linearGradient id="paint1_linear_200_2" x1="630.33" y1="661.395" x2="346.876" y2="1581.18" gradientUnits="userSpaceOnUse">
<stop stop-color="#1481B4"/>
<stop offset="0.5" stop-color="#1B9CC9" stop-opacity="0.5"/>
<stop offset="1" stop-color="#36C3C9" stop-opacity="0"/>
</linearGradient>
<linearGradient id="paint2_linear_200_2" x1="429.828" y1="1377.18" x2="913.396" y2="631.36" gradientUnits="userSpaceOnUse">
<stop stop-color="#03192E"/>
<stop offset="0.5" stop-color="#223C6A"/>
<stop offset="1" stop-color="#4A74A2"/>
</linearGradient>
<linearGradient id="paint3_linear_200_2" x1="573.23" y1="1364.64" x2="815.703" y2="815.118" gradientUnits="userSpaceOnUse">
<stop stop-color="#03192E"/>
<stop offset="0.5" stop-color="#223C6A"/>
<stop offset="1" stop-color="#4A74A2"/>
</linearGradient>
<linearGradient id="paint4_linear_200_2" x1="662.028" y1="992.742" x2="847.039" y2="615.643" gradientUnits="userSpaceOnUse">
<stop stop-color="#1481B4"/>
<stop offset="0.5" stop-color="#1B9CC9"/>
<stop offset="1" stop-color="#36C3C9"/>
</linearGradient>
<linearGradient id="paint5_linear_200_2" x1="812.131" y1="845.017" x2="930.916" y2="605.3" gradientUnits="userSpaceOnUse">
<stop stop-color="#386E9F"/>
<stop offset="1" stop-color="white"/>
</linearGradient>
<linearGradient id="paint6_linear_200_2" x1="976.759" y1="718.939" x2="882.857" y2="348.867" gradientUnits="userSpaceOnUse">
<stop stop-color="#03192E"/>
<stop offset="0.5" stop-color="#223C6A"/>
<stop offset="1" stop-color="#4A74A2"/>
</linearGradient>
<linearGradient id="paint7_linear_200_2" x1="1080.2" y1="874.43" x2="827.913" y2="343.128" gradientUnits="userSpaceOnUse">
<stop stop-color="#03192E"/>
<stop offset="0.5" stop-color="#223C6A"/>
<stop offset="1" stop-color="#4A74A2"/>
</linearGradient>
<linearGradient id="paint8_linear_200_2" x1="1030.65" y1="806.106" x2="928.682" y2="549.572" gradientUnits="userSpaceOnUse">
<stop stop-color="#03192E"/>
<stop offset="0.5" stop-color="#223C6A"/>
<stop offset="1" stop-color="#4A74A2"/>
</linearGradient>
<linearGradient id="paint9_linear_200_2" x1="252.381" y1="1377.18" x2="735.95" y2="631.36" gradientUnits="userSpaceOnUse">
<stop stop-color="#03192E"/>
<stop offset="0.5" stop-color="#223C6A"/>
<stop offset="1" stop-color="#4A74A2"/>
</linearGradient>
<linearGradient id="paint10_linear_200_2" x1="395.785" y1="1364.64" x2="638.258" y2="815.118" gradientUnits="userSpaceOnUse">
<stop stop-color="#03192E"/>
<stop offset="0.5" stop-color="#223C6A"/>
<stop offset="1" stop-color="#4A74A2"/>
</linearGradient>
<linearGradient id="paint11_linear_200_2" x1="484.581" y1="992.742" x2="669.591" y2="615.643" gradientUnits="userSpaceOnUse">
<stop stop-color="#1481B4"/>
<stop offset="0.5" stop-color="#1B9CC9"/>
<stop offset="1" stop-color="#36C3C9"/>
</linearGradient>
<linearGradient id="paint12_linear_200_2" x1="634.684" y1="845.017" x2="753.469" y2="605.3" gradientUnits="userSpaceOnUse">
<stop stop-color="#386E9F"/>
<stop offset="1" stop-color="white"/>
</linearGradient>
<linearGradient id="paint13_linear_200_2" x1="799.315" y1="718.939" x2="705.413" y2="348.867" gradientUnits="userSpaceOnUse">
<stop stop-color="#03192E"/>
<stop offset="0.5" stop-color="#223C6A"/>
<stop offset="1" stop-color="#4A74A2"/>
</linearGradient>
<linearGradient id="paint14_linear_200_2" x1="902.754" y1="874.43" x2="650.468" y2="343.128" gradientUnits="userSpaceOnUse">
<stop stop-color="#03192E"/>
<stop offset="0.5" stop-color="#223C6A"/>
<stop offset="1" stop-color="#4A74A2"/>
</linearGradient>
<linearGradient id="paint15_linear_200_2" x1="853.199" y1="806.106" x2="751.235" y2="549.572" gradientUnits="userSpaceOnUse">
<stop stop-color="#03192E"/>
<stop offset="0.5" stop-color="#223C6A"/>
<stop offset="1" stop-color="#4A74A2"/>
</linearGradient>
<linearGradient id="paint16_linear_200_2" x1="672.596" y1="1257.28" x2="1012.16" y2="833.542" gradientUnits="userSpaceOnUse">
<stop stop-color="#386E9F"/>
<stop offset="1" stop-color="white"/>
</linearGradient>
<linearGradient id="paint17_linear_200_2" x1="905.571" y1="1205.66" x2="913.98" y2="852.415" gradientUnits="userSpaceOnUse">
<stop stop-color="#386E9F"/>
<stop offset="1" stop-color="white"/>
</linearGradient>
<linearGradient id="paint18_linear_200_2" x1="728.844" y1="1194.53" x2="735.852" y2="935.206" gradientUnits="userSpaceOnUse">
<stop stop-color="#386E9F"/>
<stop offset="1" stop-color="white"/>
</linearGradient>
<linearGradient id="paint19_linear_200_2" x1="725.291" y1="1088.77" x2="385.364" y2="1416.85" gradientUnits="userSpaceOnUse">
<stop stop-color="#03192E"/>
<stop offset="0.5" stop-color="#223C6A"/>
<stop offset="1" stop-color="#4A74A2"/>
</linearGradient>
<linearGradient id="paint20_linear_200_2" x1="742.211" y1="1339.73" x2="677.04" y2="1112.64" gradientUnits="userSpaceOnUse">
<stop stop-color="#03192E"/>
<stop offset="0.5" stop-color="#223C6A"/>
<stop offset="1" stop-color="#4A74A2"/>
</linearGradient>
<linearGradient id="paint21_linear_200_2" x1="651.336" y1="1011.49" x2="722.114" y2="1237.88" gradientUnits="userSpaceOnUse">
<stop stop-color="#FF2A64"/>
<stop offset="1" stop-color="#FFAF48"/>
</linearGradient>
<linearGradient id="paint22_linear_200_2" x1="387.01" y1="1378.3" x2="1133.16" y2="755.771" gradientUnits="userSpaceOnUse">
<stop stop-color="#386E9F"/>
<stop offset="1" stop-color="white"/>
</linearGradient>
<linearGradient id="paint23_linear_200_2" x1="389.802" y1="1340.46" x2="817.694" y2="944.03" gradientUnits="userSpaceOnUse">
<stop stop-color="#386E9F"/>
<stop offset="1" stop-color="white"/>
</linearGradient>
<linearGradient id="paint24_linear_200_2" x1="832.975" y1="1185.3" x2="867.663" y2="939.287" gradientUnits="userSpaceOnUse">
<stop stop-color="#386E9F"/>
<stop offset="1" stop-color="white"/>
</linearGradient>
<linearGradient id="paint25_linear_200_2" x1="634.615" y1="1129.99" x2="222.483" y2="1461.58" gradientUnits="userSpaceOnUse">
<stop stop-color="#03192E"/>
<stop offset="0.5" stop-color="#223C6A"/>
<stop offset="1" stop-color="#4A74A2"/>
</linearGradient>
<linearGradient id="paint26_linear_200_2" x1="722.381" y1="1302.83" x2="594.138" y2="990.226" gradientUnits="userSpaceOnUse">
<stop stop-color="#03192E"/>
<stop offset="0.5" stop-color="#223C6A"/>
<stop offset="1" stop-color="#4A74A2"/>
</linearGradient>
<linearGradient id="paint27_linear_200_2" x1="690.375" y1="1323.52" x2="651.834" y2="1057.19" gradientUnits="userSpaceOnUse">
<stop stop-color="#FF2A64"/>
<stop offset="1" stop-color="#FFAF48"/>
</linearGradient>
<linearGradient id="paint28_linear_200_2" x1="1137.35" y1="965.719" x2="1201.12" y2="1211.03" gradientUnits="userSpaceOnUse">
<stop stop-color="#03192E"/>
<stop offset="0.5" stop-color="#223C6A"/>
<stop offset="1" stop-color="#4A74A2"/>
</linearGradient>
<linearGradient id="paint29_linear_200_2" x1="1164.42" y1="1103.29" x2="1111.87" y2="851.668" gradientUnits="userSpaceOnUse">
<stop stop-color="#03192E"/>
<stop offset="0.5" stop-color="#223C6A"/>
<stop offset="1" stop-color="#4A74A2"/>
</linearGradient>
<linearGradient id="paint30_linear_200_2" x1="1175.59" y1="1233.92" x2="1151.06" y2="990.713" gradientUnits="userSpaceOnUse">
<stop stop-color="#03192E"/>
<stop offset="0.5" stop-color="#223C6A"/>
<stop offset="1" stop-color="#4A74A2"/>
</linearGradient>
<linearGradient id="paint31_linear_200_2" x1="702.917" y1="1348.16" x2="1436.68" y2="170.565" gradientUnits="userSpaceOnUse">
<stop stop-color="#386E9F"/>
<stop offset="1" stop-color="white"/>
</linearGradient>
<linearGradient id="paint32_linear_200_2" x1="817.656" y1="989.144" x2="813.452" y2="498.529" gradientUnits="userSpaceOnUse">
<stop stop-color="#386E9F"/>
<stop offset="1" stop-color="white"/>
</linearGradient>
<linearGradient id="paint33_linear_200_2" x1="1337.63" y1="1138.96" x2="1309.6" y2="581.065" gradientUnits="userSpaceOnUse">
<stop stop-color="#FF2A64"/>
<stop offset="1" stop-color="#FFAF48"/>
</linearGradient>
<linearGradient id="paint34_linear_200_2" x1="849.158" y1="1657.25" x2="1227.58" y2="673.171" gradientUnits="userSpaceOnUse">
<stop stop-color="#03192E"/>
<stop offset="0.5" stop-color="#223C6A"/>
<stop offset="1" stop-color="#4A74A2"/>
</linearGradient>
<linearGradient id="paint35_linear_200_2" x1="603.022" y1="1562.6" x2="981.444" y2="578.521" gradientUnits="userSpaceOnUse">
<stop stop-color="#03192E"/>
<stop offset="0.5" stop-color="#223C6A"/>
<stop offset="1" stop-color="#4A74A2"/>
</linearGradient>
<linearGradient id="paint36_linear_200_2" x1="1092.21" y1="1165.69" x2="1135.66" y2="719.929" gradientUnits="userSpaceOnUse">
<stop stop-color="#FF2A64"/>
<stop offset="1" stop-color="#FFAF48"/>
</linearGradient>
<linearGradient id="paint37_linear_200_2" x1="1386.28" y1="810.211" x2="871.165" y2="63.6868" gradientUnits="userSpaceOnUse">
<stop stop-color="#FF2A64"/>
<stop offset="1" stop-color="#FFAF48"/>
</linearGradient>
<linearGradient id="paint38_linear_200_2" x1="1449.69" y1="849.495" x2="732.712" y2="2.00234" gradientUnits="userSpaceOnUse">
<stop stop-color="#FF2A64"/>
<stop offset="1" stop-color="#FFAF48"/>
</linearGradient>
<linearGradient id="paint39_linear_200_2" x1="948.825" y1="609.872" x2="816.383" y2="-126.058" gradientUnits="userSpaceOnUse">
<stop stop-color="#FF2A64"/>
<stop offset="1" stop-color="#FFAF48"/>
</linearGradient>
<linearGradient id="paint40_linear_200_2" x1="1118.15" y1="962.945" x2="1183.32" y2="229.124" gradientUnits="userSpaceOnUse">
<stop stop-color="#03192E"/>
<stop offset="0.5" stop-color="#223C6A"/>
<stop offset="1" stop-color="#4A74A2"/>
</linearGradient>
<linearGradient id="paint41_linear_200_2" x1="1142.61" y1="1174.67" x2="1237.21" y2="293.664" gradientUnits="userSpaceOnUse">
<stop stop-color="#03192E"/>
<stop offset="0.5" stop-color="#223C6A"/>
<stop offset="1" stop-color="#4A74A2"/>
</linearGradient>
<linearGradient id="paint42_linear_200_2" x1="1503.81" y1="319.809" x2="910.845" y2="820.345" gradientUnits="userSpaceOnUse">
<stop stop-color="white"/>
<stop offset="1" stop-color="#B5E0F7"/>
</linearGradient>
<linearGradient id="paint43_linear_200_2" x1="1209.63" y1="645.214" x2="1175.99" y2="303.885" gradientUnits="userSpaceOnUse">
<stop/>
<stop offset="1" stop-color="white"/>
</linearGradient>
<linearGradient id="paint44_linear_200_2" x1="964.038" y1="1145.05" x2="1289.9" y2="371.242" gradientUnits="userSpaceOnUse">
<stop stop-color="#FF2A64"/>
<stop offset="1" stop-color="#FFAF48"/>
</linearGradient>
<linearGradient id="paint45_linear_200_2" x1="1110.64" y1="493.29" x2="1110.64" y2="372.457" gradientUnits="userSpaceOnUse">
<stop stop-color="#03192E"/>
<stop offset="0.5" stop-color="#223C6A"/>
<stop offset="1" stop-color="#4A74A2"/>
</linearGradient>
<linearGradient id="paint46_linear_200_2" x1="1076.58" y1="1218.39" x2="1016.16" y2="377.428" gradientUnits="userSpaceOnUse">
<stop stop-color="#03192E"/>
<stop offset="0.5" stop-color="#223C6A"/>
<stop offset="1" stop-color="#4A74A2"/>
</linearGradient>
<linearGradient id="paint47_linear_200_2" x1="1073.84" y1="713.665" x2="832.037" y2="950.606" gradientUnits="userSpaceOnUse">
<stop stop-color="#03192E"/>
<stop offset="0.5" stop-color="#223C6A"/>
<stop offset="1" stop-color="#4A74A2"/>
</linearGradient>
<linearGradient id="paint48_linear_200_2" x1="1115.63" y1="830.68" x2="817.099" y2="37.9505" gradientUnits="userSpaceOnUse">
<stop stop-color="#386E9F"/>
<stop offset="1" stop-color="white"/>
</linearGradient>
<linearGradient id="paint49_linear_200_2" x1="1589.86" y1="1053.98" x2="370.263" y2="176.967" gradientUnits="userSpaceOnUse">
<stop stop-color="#FF2A64"/>
<stop offset="1" stop-color="#FFAF48"/>
</linearGradient>
<linearGradient id="paint50_linear_200_2" x1="922.279" y1="844.114" x2="638.358" y2="313.647" gradientUnits="userSpaceOnUse">
<stop stop-color="#FF2A64"/>
<stop offset="1" stop-color="#FFAF48"/>
</linearGradient>
<linearGradient id="paint51_linear_200_2" x1="714.798" y1="1013.07" x2="290.126" y2="-113.99" gradientUnits="userSpaceOnUse">
<stop stop-color="#FF2A64"/>
<stop offset="1" stop-color="#FFAF48"/>
</linearGradient>
<linearGradient id="paint52_linear_200_2" x1="812.64" y1="1165.34" x2="784.61" y2="607.442" gradientUnits="userSpaceOnUse">
<stop stop-color="#FF2A64"/>
<stop offset="1" stop-color="#FFAF48"/>
</linearGradient>
<linearGradient id="paint53_linear_200_2" x1="549.985" y1="980.953" x2="941.081" y2="620.629" gradientUnits="userSpaceOnUse">
<stop stop-color="#03192E"/>
<stop offset="0.5" stop-color="#223C6A"/>
<stop offset="1" stop-color="#4A74A2"/>
</linearGradient>
<linearGradient id="paint54_linear_200_2" x1="565.845" y1="958.642" x2="761.8" y2="769.995" gradientUnits="userSpaceOnUse">
<stop stop-color="#03192E"/>
<stop offset="0.5" stop-color="#223C6A"/>
<stop offset="1" stop-color="#4A74A2"/>
</linearGradient>
<linearGradient id="paint55_linear_200_2" x1="707.229" y1="822.706" x2="831.285" y2="702.833" gradientUnits="userSpaceOnUse">
<stop stop-color="#03192E"/>
<stop offset="0.5" stop-color="#223C6A"/>
<stop offset="1" stop-color="#4A74A2"/>
</linearGradient>
<linearGradient id="paint56_linear_200_2" x1="788.924" y1="733.336" x2="678.533" y2="830.34" gradientUnits="userSpaceOnUse">
<stop stop-color="white"/>
<stop offset="1" stop-color="#B5E0F7"/>
</linearGradient>
<linearGradient id="paint57_linear_200_2" x1="803.564" y1="749.997" x2="693.173" y2="847.001" gradientUnits="userSpaceOnUse">
<stop stop-color="white"/>
<stop offset="1" stop-color="#B5E0F7"/>
</linearGradient>
<linearGradient id="paint58_linear_200_2" x1="796.571" y1="742.039" x2="686.18" y2="839.043" gradientUnits="userSpaceOnUse">
<stop stop-color="white"/>
<stop offset="1" stop-color="#B5E0F7"/>
</linearGradient>
<linearGradient id="paint59_linear_200_2" x1="699.528" y1="814.714" x2="745.435" y2="766.345" gradientUnits="userSpaceOnUse">
<stop stop-color="#03192E"/>
<stop offset="0.5" stop-color="#223C6A"/>
<stop offset="1" stop-color="#4A74A2"/>
</linearGradient>
<linearGradient id="paint60_linear_200_2" x1="717.844" y1="832.098" x2="763.751" y2="783.729" gradientUnits="userSpaceOnUse">
<stop stop-color="#03192E"/>
<stop offset="0.5" stop-color="#223C6A"/>
<stop offset="1" stop-color="#4A74A2"/>
</linearGradient>
<linearGradient id="paint61_linear_200_2" x1="545.299" y1="1257.83" x2="545.299" y2="480.34" gradientUnits="userSpaceOnUse">
<stop stop-color="#03192E"/>
<stop offset="0.5" stop-color="#223C6A"/>
<stop offset="1" stop-color="#4A74A2"/>
</linearGradient>
<linearGradient id="paint62_linear_200_2" x1="600.998" y1="1017.55" x2="608.356" y2="740.006" gradientUnits="userSpaceOnUse">
<stop stop-color="#03192E"/>
<stop offset="0.5" stop-color="#223C6A"/>
<stop offset="1" stop-color="#4A74A2"/>
</linearGradient>
<linearGradient id="paint63_linear_200_2" x1="524.496" y1="1131.46" x2="483.502" y2="915.936" gradientUnits="userSpaceOnUse">
<stop stop-color="#03192E"/>
<stop offset="0.5" stop-color="#223C6A"/>
<stop offset="1" stop-color="#4A74A2"/>
</linearGradient>
<linearGradient id="paint64_linear_200_2" x1="656.891" y1="978.066" x2="511.12" y2="746.752" gradientUnits="userSpaceOnUse">
<stop stop-color="#386E9F"/>
<stop offset="1" stop-color="white"/>
</linearGradient>
<linearGradient id="paint65_linear_200_2" x1="717.519" y1="1051.08" x2="578.055" y2="832.388" gradientUnits="userSpaceOnUse">
<stop stop-color="#FF2A64"/>
<stop offset="1" stop-color="#FFAF48"/>
</linearGradient>
<linearGradient id="paint66_linear_200_2" x1="906.259" y1="1307.1" x2="904.156" y2="862.398" gradientUnits="userSpaceOnUse">
<stop stop-color="#FF2A64"/>
<stop offset="1" stop-color="#FFAF48"/>
</linearGradient>
<linearGradient id="paint67_linear_200_2" x1="998.425" y1="973.577" x2="1104.61" y2="870.529" gradientUnits="userSpaceOnUse">
<stop stop-color="#03192E"/>
<stop offset="0.5" stop-color="#223C6A"/>
<stop offset="1" stop-color="#4A74A2"/>
</linearGradient>
<linearGradient id="paint68_linear_200_2" x1="794.602" y1="1215.21" x2="1074.24" y2="889.252" gradientUnits="userSpaceOnUse">
<stop stop-color="#FF2A64"/>
<stop offset="1" stop-color="#FFAF48"/>
</linearGradient>
<linearGradient id="paint69_linear_200_2" x1="830.987" y1="1101.85" x2="1149.54" y2="797.962" gradientUnits="userSpaceOnUse">
<stop stop-color="#FF2A64"/>
<stop offset="1" stop-color="#FFAF48"/>
</linearGradient>
<linearGradient id="paint70_linear_200_2" x1="858.086" y1="1130.26" x2="1176.64" y2="826.369" gradientUnits="userSpaceOnUse">
<stop stop-color="#FF2A64"/>
<stop offset="1" stop-color="#FFAF48"/>
</linearGradient>
<linearGradient id="paint71_linear_200_2" x1="834.676" y1="1105.72" x2="1153.23" y2="801.826" gradientUnits="userSpaceOnUse">
<stop stop-color="#FF2A64"/>
<stop offset="1" stop-color="#FFAF48"/>
</linearGradient>
<linearGradient id="paint72_linear_200_2" x1="516.601" y1="801.469" x2="411.987" y2="463.017" gradientUnits="userSpaceOnUse">
<stop stop-color="#1481B4"/>
<stop offset="0.5" stop-color="#1B9CC9" stop-opacity="0.5"/>
<stop offset="1" stop-color="#36C3C9" stop-opacity="0"/>
</linearGradient>
<linearGradient id="paint73_linear_200_2" x1="427.81" y1="959.244" x2="77.2894" y2="1010.99" gradientUnits="userSpaceOnUse">
<stop stop-color="#1481B4"/>
<stop offset="0.5" stop-color="#1B9CC9" stop-opacity="0.5"/>
<stop offset="1" stop-color="#36C3C9" stop-opacity="0"/>
</linearGradient>
<linearGradient id="paint74_linear_200_2" x1="504.724" y1="872.091" x2="-63.7674" y2="632.283" gradientUnits="userSpaceOnUse">
<stop stop-color="#1481B4"/>
<stop offset="0.5" stop-color="#1B9CC9" stop-opacity="0.5"/>
<stop offset="1" stop-color="#36C3C9" stop-opacity="0"/>
</linearGradient>
</defs>
</svg>
