<svg width="635" height="457" viewBox="0 0 635 457" fill="none" xmlns="http://www.w3.org/2000/svg">
<path d="M61 455.692H97.0235V337.308H61V455.692Z" fill="white"/>
<path d="M123.389 455.692H159.413V425.932H230.973C256.449 425.932 264.076 405.657 264.076 387.997V377.859C264.076 354.641 255.8 337.308 221.562 337.308H123.389V455.692ZM159.413 366.741H212.312C223.184 366.741 227.079 371.319 227.079 379.331V383.909C227.079 390.941 223.833 396.5 215.395 396.5H159.413V366.741Z" fill="white"/>
<path d="M274.997 366.741H325.625V455.692H361.648V366.741H412.276V337.308H274.997V366.741Z" fill="white"/>
<path d="M425.849 425.115C425.849 450.786 438.993 457 471.771 457H515.421C563.29 457 574 451.768 574 419.882C574 385.381 561.019 381.947 505.036 382.111C466.416 382.274 462.035 381.947 462.035 371.646C462.035 365.269 467.552 362.489 475.666 362.489H515.584C532.135 362.489 533.108 366.086 533.108 374.753H569.132V370.992C569.132 350.226 565.238 336 523.697 336H473.394C427.959 336 426.012 352.515 426.012 373.935C426.012 403.041 432.178 409.581 486.375 409.581C532.784 409.581 537.003 410.235 537.003 420.536C537.003 429.693 529.214 430.511 521.587 430.511H477.451C467.065 430.511 462.035 429.53 461.873 416.939H425.849V425.115Z" fill="white"/>
<path fill-rule="evenodd" clip-rule="evenodd" d="M0 141C0 64.0302 138.874 1.46504 311.418 0.0253558V0H324.393V0.0325748C496.561 1.66118 635 64.1509 635 141C635 218.872 492.85 282 317.5 282C142.15 282 0 218.872 0 141ZM600.65 186.945C613.073 173.901 619.92 160.628 621.608 147.483H530.972C529.644 166.856 522.39 185.21 510.379 201.776L583.889 201.776C590.232 196.961 595.832 192.004 600.65 186.945ZM564.407 214.741H499.675C483.203 232.421 460.985 247.52 434.737 258.905C473.422 251.918 508.035 241.6 536.736 228.854C546.774 224.396 556.014 219.675 564.407 214.741ZM493.88 201.776C508.108 185.129 516.423 166.627 517.959 147.483H424.844C424.176 166.856 420.528 185.21 414.488 201.776H493.88ZM409.106 214.741L481.178 214.741C475.255 220.059 468.669 225.122 461.454 229.883C436.596 246.285 404.882 258.596 369.087 264.719C385.509 252.904 399.323 235.622 409.106 214.741ZM400.597 201.776C407.106 185.557 411.131 167.16 411.86 147.483H324.393V201.776L400.597 201.776ZM324.393 214.741H394.629C391.214 221.264 387.368 227.324 383.159 232.847C367.232 253.746 346.564 266.495 324.393 268.694V214.741ZM311.418 201.776V147.483H223.14C223.869 167.16 227.894 185.557 234.403 201.776L311.418 201.776ZM240.371 214.741H311.418V268.769C288.94 266.805 267.962 254.001 251.841 232.847C247.632 227.324 243.786 221.264 240.371 214.741ZM220.512 201.776C214.472 185.21 210.824 166.856 210.156 147.483H117.041C118.577 166.627 126.892 185.129 141.12 201.776H220.512ZM153.822 214.741L225.894 214.741C235.677 235.623 249.491 252.904 265.913 264.719C230.118 258.596 198.404 246.285 173.546 229.883C166.331 225.122 159.745 220.059 153.822 214.741ZM124.621 201.776C112.61 185.21 105.356 166.856 104.028 147.483H13.3918C15.0798 160.628 21.9269 173.901 34.3503 186.945C39.1682 192.004 44.7676 196.961 51.1113 201.776L124.621 201.776ZM70.5931 214.741H135.325C151.797 232.421 174.015 247.52 200.263 258.905C161.578 251.918 126.965 241.6 98.2635 228.854C88.2259 224.396 78.9864 219.675 70.5931 214.741ZM600.65 95.0547C613.073 108.099 619.92 121.372 621.608 134.517H530.972C529.644 115.144 522.39 96.7899 510.379 80.2242L583.889 80.2242C590.232 85.0394 595.832 89.996 600.65 95.0547ZM564.407 67.2587C556.014 62.325 546.774 57.6036 536.736 53.146C508.035 40.3999 473.422 30.0824 434.737 23.0949C460.985 34.4805 483.203 49.5792 499.675 67.2587L564.407 67.2587ZM481.178 67.2587C475.255 61.941 468.669 56.8778 461.454 52.1174C436.596 35.7153 404.882 23.4037 369.087 17.2813C385.509 29.0965 399.323 46.3775 409.106 67.2587L481.178 67.2587ZM414.488 80.2242C420.528 96.7899 424.176 115.144 424.844 134.517H517.959C516.423 115.373 508.108 96.8708 493.88 80.2242L414.488 80.2242ZM400.597 80.2242C407.106 96.4432 411.131 114.84 411.86 134.517H324.393V80.2242L400.597 80.2242ZM223.14 134.517H311.418V80.2242L234.403 80.2242C227.894 96.4432 223.869 114.84 223.14 134.517ZM394.629 67.2587L324.393 67.2586V13.3064C346.564 15.5047 367.232 28.2536 383.159 49.1529C387.368 54.6758 391.214 60.736 394.629 67.2587ZM311.418 67.2586V13.2307C288.94 15.1953 267.962 27.999 251.841 49.1529C247.632 54.6758 243.786 60.736 240.371 67.2586L311.418 67.2586ZM225.894 67.2586C235.677 46.3775 249.491 29.0965 265.913 17.2813C230.118 23.4037 198.404 35.7153 173.546 52.1174C166.331 56.8777 159.745 61.9409 153.822 67.2586L225.894 67.2586ZM141.12 80.2241C126.892 96.8708 118.577 115.373 117.041 134.517H210.156C210.824 115.144 214.472 96.7899 220.512 80.2242L141.12 80.2241ZM124.621 80.2241C112.61 96.7899 105.356 115.144 104.028 134.517H13.3918C15.0798 121.372 21.9269 108.099 34.3503 95.0547C39.1682 89.996 44.7676 85.0393 51.1113 80.2241L124.621 80.2241ZM135.325 67.2586C151.797 49.5792 174.015 34.4805 200.263 23.0949C161.578 30.0824 126.965 40.3999 98.2635 53.146C88.2259 57.6036 78.9864 62.325 70.5931 67.2586L135.325 67.2586Z" fill="white"/>
</svg>
