<svg width="614" height="112" viewBox="0 0 614 112" fill="none" xmlns="http://www.w3.org/2000/svg">
<path fill-rule="evenodd" clip-rule="evenodd" d="M271.106 11.6899C267.139 12.9078 266.914 14.6943 265.928 52.6158L265.32 75.9877L262.936 78.0605C260.553 80.1313 252.716 84.6322 251.492 84.6322C251.107 84.6322 251.24 83.6147 251.822 82.1157C253.871 76.8375 251.754 71.8423 242.571 60.2908C235.009 50.778 235.398 51.6521 236.126 45.7822C236.822 40.1621 236.242 36.1376 234.556 34.8903C232.874 33.6448 228.3 33.194 225.806 34.0271C222.153 35.2469 221.001 37.3081 221.006 42.6171C221.008 45.1227 221.306 48.2539 221.668 49.5749C222.267 51.7552 222.095 52.4794 219.81 57.4125C215.899 65.8597 208.335 77.0846 199.546 87.4861C196.054 91.6188 195.473 94.004 197.311 96.6594C198.464 98.3256 201.418 100 203.204 100C205.055 100 208.02 97.1999 213.377 90.3951C218.811 83.4917 222.912 77.4003 226.931 70.2658L229.698 65.3532L232.864 69.3898C238.074 76.0326 239.986 79.4814 239.986 82.2386C239.986 85.4498 239.211 86.8323 236.857 87.8191C234.262 88.9063 231.131 88.2065 228.259 85.8962C225.211 83.4456 223.896 83.4968 221.255 86.1689C218.988 88.4626 218.601 90.3669 219.917 92.7425C224.629 101.246 244.909 101.007 260.71 92.261L265.297 89.7215V91.6796C265.297 94.7141 266.93 98.0086 268.788 98.7232C271.594 99.8028 276.378 99.4986 278.041 98.136C279.534 96.913 279.536 96.8925 280.044 76.5365C280.61 53.8888 280.344 55.1329 285.23 52.2905C288.485 50.3964 292.343 49.7939 294.406 50.8575C297.84 52.628 298.2 54.6463 298.205 72.1458C298.21 89.2047 298.554 91.8851 301.196 95.4255C303.366 98.3345 306.119 99.3597 311.764 99.3597C317.619 99.3597 321.568 97.9042 327.437 93.5833C331.122 90.8702 331.723 90.6134 332.038 91.6162C332.8 94.0469 337.013 97.4649 340.518 98.4959C346.883 100.368 353.694 98.6457 358.96 93.8317C361.487 91.5221 361.709 91.4395 362.364 92.5645C363.631 94.7448 366.026 97.456 367.287 98.1386C369.441 99.3059 374.633 99.8278 378.298 99.2463C382.663 98.5535 388.098 95.836 391.838 92.4755L394.668 89.9328L397.356 92.9583C401.016 97.0776 405.384 98.9896 411.156 98.9985C416.708 99.0075 421.208 97.4854 424.782 94.3901C426.656 92.7669 427.6 92.2911 427.792 92.8732C428.329 94.5047 431.732 97.9279 433.59 98.7072C434.75 99.1932 437.468 99.4019 440.713 99.2534C446.929 98.9684 451.04 97.2876 456.479 92.8046L460.03 89.8777L462.315 92.6446C465.581 96.5973 470.592 98.9326 475.935 98.9928C481.993 99.0606 484.38 98.3672 488.92 95.2219L492.959 92.4237L494.454 94.7135C496.911 98.4767 499.439 99.4596 506.074 99.2335C510.916 99.0683 512.334 98.7514 515.538 97.1185C517.611 96.062 520.868 93.7318 522.776 91.9402L526.244 88.6829L528.238 91.62C535.532 102.364 551.971 102.518 563.837 91.9543L567.18 88.9787L570.343 91.9729C574.383 95.7963 579.016 97.9298 584.922 98.6854C593.659 99.8028 602.311 97.7883 608.959 93.0883C612.572 90.534 613.771 88.4088 613.107 85.7322C612.564 83.5417 609.685 80.1499 608.37 80.1499C607.791 80.1499 605.931 81.1469 604.238 82.3648C600.143 85.3103 595.866 86.6671 590.695 86.6607C585.961 86.6549 583.371 85.875 581.16 83.7888C577.976 80.7844 578.105 80.4649 583.727 77.4727C590.273 73.9886 596.577 67.8927 599.115 62.5927C600.578 59.5371 600.981 57.7077 601.196 53.1537C601.439 48.0176 601.308 47.1852 599.757 43.9765C596.904 38.074 590.884 35.4409 583.045 36.6665C577.937 37.4644 574.697 39.1433 570.955 42.9302C564.772 49.1862 561.76 58.8455 562.242 70.8651C562.522 77.8338 562.506 77.9337 560.717 80.2446C557.604 84.2652 553.165 86.6818 548.239 87.0385C542.511 87.4534 540.359 86.3329 538.305 81.8691C537.464 80.0429 536.774 78.0195 536.771 77.3721C536.767 76.7248 538.632 73.8433 540.915 70.9689C545.851 64.7532 550.205 56.16 551.999 49.094C553.874 41.7053 554.367 28.0695 552.959 22.5204C551.576 17.0725 549.523 14.031 546.098 12.3527C541.029 9.86947 535.094 10.8549 530.759 14.8999C525.501 19.8029 523.194 28.8123 522.246 48.1335C521.874 55.7188 521.854 63.746 522.196 68.5843C522.829 77.5181 522.82 77.5469 517.992 82.1355C514.243 85.6977 512.656 86.5531 509.792 86.5531C507.394 86.5531 507.082 86.3649 506.453 84.5367C505.645 82.1925 505.588 55.6234 506.339 31.1648C506.609 22.3603 506.609 14.5439 506.339 13.7947C504.937 9.90405 494.019 10.3241 492.555 14.3255C492.259 15.1349 491.852 20.6526 491.651 26.5878C491.45 32.5223 491.164 37.5015 491.014 37.6526C490.866 37.8037 488.733 37.6116 486.277 37.2255C475.385 35.5159 464.655 41.0227 460.02 50.7031C457.261 56.4642 456.4 61.0553 456.4 70.0167V78.1841L454.343 80.5603C449.88 85.7169 442.826 88.3531 441.308 85.4326C440.003 82.9212 439.861 74.8915 440.611 45.991C441.044 29.3143 441.214 14.9281 440.99 14.022C440.147 10.6244 431.182 9.95399 428.138 13.0609C426.802 14.4254 426.685 15.2457 426.273 26.2023C426.031 32.6293 425.718 37.8883 425.576 37.8883C425.435 37.8883 423.392 37.586 421.037 37.2159C407.543 35.0971 396.15 42.9603 392.048 57.223C391.419 59.4071 391.021 63.7741 390.933 69.457L390.796 78.2942L387.687 81.515C384.42 84.8998 380.752 87.1935 378.607 87.1935C377.905 87.1935 376.851 86.4539 376.266 85.5497C375.298 84.0546 375.25 82.2098 375.731 65.2194C376.512 37.6718 376.584 39.8854 374.858 38.4716C372.575 36.6012 365.929 36.7434 363.668 38.7111C362.057 40.1134 361.965 40.5437 361.449 49.1164C361.153 54.0348 360.897 63.3035 360.88 69.7138L360.849 81.369L357.859 83.4501C355.585 85.0343 354.023 85.5939 351.329 85.7911C343.763 86.3444 342.803 82.9545 343.298 57.4182C343.468 48.6137 343.382 40.8069 343.106 40.0692C342.369 38.0989 339.251 37.043 335.18 37.385C328.921 37.91 329.106 37.2896 328.72 59.0594L328.388 77.7954L326.109 80.3586C322.446 84.4778 319.221 86.5531 316.481 86.5531C312.614 86.5531 312.495 85.9583 312.679 67.4912C312.86 49.2361 312.381 46.0902 308.785 41.9467C302.938 35.2085 291.238 35.432 283.359 42.432L280.913 44.6059L281.359 29.7888L281.805 14.9722L280.353 13.2991C278.676 11.3646 274.52 10.6417 271.106 11.6899ZM542.112 25.3122C542.968 29.5877 543.03 31.8077 542.46 37.8883C541.731 45.6574 540.153 51.7424 537.419 57.3222L535.489 61.2602L535.8 47.173C536.127 32.295 537.06 25.4621 538.955 24.0598C540.366 23.016 541.763 23.5699 542.112 25.3122ZM588.101 49.8342C589.378 51.3928 589.004 56.6005 587.371 60.0148C585.986 62.909 581.613 66.9988 577.733 69.0293L575.881 69.9988L576.302 64.9888C576.917 57.6795 578.263 53.3963 580.731 50.8997C583.119 48.4831 586.585 47.9824 588.101 49.8342ZM425.269 50.4406C425.511 50.7563 425.567 58.2187 425.393 67.0232L425.077 83.0313L421.597 84.839C415.675 87.9138 410.054 86.4974 407.49 81.2832C405.833 77.9132 404.972 71.5605 405.412 65.9525C406.071 57.5662 408.257 53.1152 412.889 50.7243C415.127 49.5698 416.371 49.3789 420.206 49.5999C422.748 49.7465 425.026 50.1249 425.269 50.4406ZM489.58 50.0385L491.204 50.6628L491.199 66.5269L491.195 82.391L489.143 83.762C484.08 87.1429 478.217 87.2684 474.831 84.0667C471.862 81.2608 470.75 76.3188 471.081 67.4009C471.291 61.7225 471.663 59.2854 472.663 57.0244C474 54.0034 477.411 50.7031 479.967 49.9584C482.21 49.304 487.793 49.3508 489.58 50.0385Z" fill="white"/>
<path fill-rule="evenodd" clip-rule="evenodd" d="M144.889 58.712C143.796 81.6416 128.816 102.455 106.014 109.545C83.1062 116.667 59.1469 107.81 45.6964 89.2365C44.8366 89.3954 43.9825 89.5499 43.1349 89.6998C33.8289 91.3459 25.0254 92.4862 18.2264 92.5891C14.8822 92.6397 11.5777 92.4516 8.80504 91.7366C6.53236 91.1505 1.92375 89.5125 0.435041 84.5477C-0.519381 81.3648 0.246379 78.4597 1.29078 76.3751C2.30344 74.3539 3.78391 72.6469 5.21632 71.2679C8.09633 68.4952 12.0353 65.8707 16.0386 63.5542C22.0445 60.0789 29.0505 56.8136 34.9878 54.3183C35.6739 30.9841 50.7599 9.65067 73.9027 2.45522C97.3692 -4.84091 121.939 4.6319 135.186 24.1396C141.774 22.8511 150.757 21.4301 158.7 20.913C163.095 20.627 167.561 20.5885 171.234 21.1487C173.048 21.4253 175.092 21.9071 176.942 22.8501C178.782 23.7879 181.245 25.623 182.241 28.9456C183.041 31.6124 182.427 34.0022 181.688 35.6045C180.969 37.162 179.941 38.4331 179.02 39.4018C177.168 41.3487 174.638 43.218 171.943 44.954C166.456 48.4875 158.83 52.3833 150.485 56.2057C148.661 57.0408 146.792 57.8777 144.889 58.712ZM132.047 64.1072C129.173 79.5103 118.214 92.812 102.465 97.7086C86.6267 102.633 70.1432 97.7508 59.3113 86.4744C73.5025 83.3635 87.8473 79.5522 98.4026 76.2704C107.987 73.2906 120.117 68.919 132.047 64.1072ZM132.202 48.7966C118.992 54.3061 104.969 59.4407 94.3464 62.7433C82.771 66.3423 66.3563 70.6307 50.8664 73.8224C50.1502 72.188 49.5248 70.4908 48.9984 68.7351C42.0912 45.7001 54.8302 21.3248 77.4518 14.2914C100.073 7.25803 124.011 20.2299 130.918 43.2649C131.47 45.1034 131.896 46.9505 132.202 48.7966ZM141.78 37.2932C147.334 36.3193 153.841 35.4018 159.586 35.0278C160.192 34.9884 160.78 34.9557 161.35 34.9296C156.947 37.4839 151.252 40.3459 144.787 43.3069C144.403 43.4829 144.016 43.6589 143.628 43.8351C143.321 42.4382 142.96 41.0426 142.542 39.6509C142.304 38.8555 142.049 38.0696 141.78 37.2932ZM36.4874 69.036C31.9347 71.0623 27.0919 73.426 22.901 75.8511C21.3557 76.7453 19.9657 77.6101 18.7497 78.4314C23.9307 78.2892 30.821 77.457 38.6523 76.1296C38.1864 74.8946 37.7599 73.634 37.3746 72.3491C37.044 71.2467 36.7485 70.1419 36.4874 69.036ZM11.6953 77.853C11.7016 77.8503 11.7657 77.8718 11.8689 77.9254C11.7406 77.8824 11.6891 77.8556 11.6953 77.853Z" fill="#AEFFF7"/>
</svg>
