<svg width="75" height="75" viewBox="0 0 75 75" fill="none" xmlns="http://www.w3.org/2000/svg">
<path d="M37.25 45.125L47.875 39.375M43 15.75C43 21.125 38.625 25.5 33.25 25.5C27.875 25.5 23.5 21.125 23.5 15.75C23.5 10.375 27.875 6.00002 33.25 6.00002C38.625 6.00002 43 10.375 43 15.75ZM33.25 11.375C30.875 11.375 28.875 13.375 28.875 15.75C28.875 18.125 30.875 20.125 33.25 20.125C35.625 20.125 37.625 18.125 37.625 15.75C37.625 13.375 35.625 11.375 33.25 11.375ZM33.25 42.375C30.875 42.375 28.875 44.375 28.875 46.75C28.875 49.125 30.875 51.125 33.25 51.125C35.625 51.125 37.625 49.125 37.625 46.75C37.625 44.375 35.625 42.375 33.25 42.375ZM13.25 63.625C10.875 63.625 8.87498 65.625 8.87498 68C8.87498 70.375 10.875 72.375 13.25 72.375C15.625 72.375 17.625 70.375 17.625 68C17.625 65.625 15.75 63.625 13.25 63.625ZM65.125 63.625C62.75 63.625 60.75 65.625 60.75 68C60.75 70.375 62.75 72.375 65.125 72.375C67.5 72.375 69.5 70.375 69.5 68C69.5 65.625 67.5 63.625 65.125 63.625ZM14.625 32.875C12.25 32.875 10.25 34.875 10.25 37.25C10.25 39.625 12.25 41.625 14.625 41.625C17 41.625 19 39.625 19 37.25C19 34.875 17.125 32.875 14.625 32.875ZM51.75 32.875C49.375 32.875 47.375 34.875 47.375 37.25C47.375 39.625 49.375 41.625 51.75 41.625C54.125 41.625 56.125 39.625 56.125 37.25C56.125 34.875 54.125 32.875 51.75 32.875ZM62.625 22.375C60.25 22.375 58.25 24.375 58.25 26.75C58.25 29.125 60.25 31.125 62.625 31.125C65 31.125 67 29.125 67 26.75C67.125 24.375 65.125 22.375 62.625 22.375ZM55.625 2.5C53.375 2.5 51.5 4.37502 51.5 6.62502C51.5 8.87502 53.375 10.75 55.625 10.75C57.875 10.75 59.75 8.87502 59.75 6.62502C59.75 4.37502 57.875 2.5 55.625 2.5ZM9.49998 11.75C7.24998 11.75 5.375 13.625 5.375 15.875C5.375 18.125 7.24998 20 9.49998 20C11.75 20 13.625 18.125 13.625 15.875C13.625 13.625 11.75 11.75 9.49998 11.75ZM23.375 15.75H13.5H23.375ZM51.875 8.125L42.25 12.125L51.875 8.125ZM65 15.75L58.625 9.375L65 15.75ZM39.625 23.125L48.875 33.875L39.625 23.125ZM17.625 33.875L26.875 23.125L17.625 33.875ZM63.375 64L53.375 41L63.375 64ZM17.625 68H60.625H17.625ZM30.25 50L16.625 64.625L30.25 50ZM33.25 25.5V42.375V25.5ZM55 60.625L36.25 49.875L55 60.625ZM55 34.375L59.125 30.25L55 34.375ZM5.50001 55.625L12.25 41L5.50001 55.625ZM6.625 60.625L10.25 64.875L6.625 60.625Z" stroke="url(#paint0_linear_1692_3950)" stroke-width="2" stroke-miterlimit="10" stroke-linecap="round" stroke-linejoin="round"/>
<defs>
<linearGradient id="paint0_linear_1692_3950" x1="37.462" y1="73.6933" x2="37.462" y2="1.19325" gradientUnits="userSpaceOnUse">
<stop stop-color="#B0DDFD"/>
<stop offset="1" stop-color="#6AB0F8"/>
</linearGradient>
</defs>
</svg>
